# ProBuilder 5.0.6
# https://unity3d.com/unity/features/worldbuilding/probuilder
# 18/10/2022 8:14:40 PM

mtllib ./Breakable_Wall.mtl
o Breakable Wall

g Breakable Wall
v -1 0 0.0999999
v -2 0 0.0999999
v -1 2 0.0999999
v -2 2 0.0999999
v -2 0 0
v -2 2 0
v -1 0 0
v -1 2 0

vt -0.9999999 2
vt 5.960464E-08 2
vt -1 5.960464E-08
vt -8.940697E-08 0
vt -0.09999993 2
vt -0.1000001 0
vt -0.9242454 -0.1332669
vt 0.07575452 -0.1332669
vt -0.9242455 -2.133267
vt 0.0757544 -2.133267
vt 0.1000001 2
vt 0.09999993 0
vt 1 -0.1000001
vt 0 -0.09999998
vt 1 -1.639128E-07
vt -1 -0.09999998
vt 0 -0.1000001

vn 0 0 1
vn -1 0 0
vn 0 0 -1
vn 1 0 0
vn 0 1 0
vn 0 -1 0

usemtl Plaster_Bricks
f 3/3/1 4/4/1 2/2/1 1/1/1
f 4/6/2 6/4/2 5/2/2 2/5/2
f 8/4/4 3/12/4 1/11/4 7/2/4
f 8/15/5 6/4/5 4/14/5 3/13/5
f 1/16/6 2/17/6 5/4/6 7/3/6

usemtl Plaster_Bricks
f 6/9/3 8/10/3 7/8/3 5/7/3

